<svg width="1440" height="810" viewBox="0 0 1440 810" fill="none" xmlns="http://www.w3.org/2000/svg">
<path d="M1208.18 234.639C1290.08 292.275 1159.34 402.477 895.633 482.486C612.275 568.481 313.995 578.92 252.962 504.431C195.756 434.634 376.956 321.705 638.344 252.614C883.454 187.867 1130.83 180.209 1208.18 234.639Z" stroke="#423E75" stroke-miterlimit="10"/>
<path d="M577.425 204.622C928.983 115.906 1278.97 105.357 1400.91 178.995C1535.93 260.106 1369.61 425.801 970.257 556.139C508.022 707.58 9.22763 726.538 -61.6292 593.268C-124.862 477.114 184.18 303.644 577.425 204.622Z" stroke="#423E75" stroke-miterlimit="10"/>
<path d="M516.298 156.706C974.324 44.1141 1426.94 30.6597 1593.46 123.527C1781.65 228.096 1579.64 449.184 1044.67 629.821C403.546 846.691 -295.814 874.156 -376.429 682.1C-445.664 519.59 -8.78258 285.614 516.298 156.706Z" stroke="#423E75" stroke-miterlimit="10"/>
<path d="M1786.05 68.0406C2027.38 196.059 1789.76 472.569 1119.13 703.488C299.146 985.82 -600.826 1021.74 -691.243 770.856C-766.525 561.991 -201.804 267.565 455.158 108.749C1019.7 -27.6993 1574.92 -43.968 1786.05 68.0406Z" stroke="#423E75" stroke-miterlimit="10"/>
<g filter="url(#filter0_i)">
<circle cx="204" cy="252" r="35" fill="url(#paint0_radial)"/>
</g>
<g style="mix-blend-mode:overlay">
<path d="M208.289 230.55L207.806 231.47L202.131 259.836L202.361 260.181L217.085 255.032L208.289 230.55Z" fill="#B1B1B1"/>
<path d="M208.286 230.549L190.748 249.763L202.358 260.18L205.112 246.412L208.286 230.549Z" fill="white"/>
<path d="M201.862 262.673L201.66 262.839L199.639 272.943L199.706 273.449L216.594 257.53L201.862 262.673Z" fill="#B1B1B1"/>
<path d="M199.703 273.449L201.859 262.673L190.248 252.26L199.703 273.449Z" fill="white"/>
<path d="M202.356 260.179L217.08 255.03L205.11 246.411L202.356 260.179Z" fill="#848484"/>
<path d="M190.748 249.762L202.358 260.18L205.112 246.411L190.748 249.762Z" fill="#B1B1B1"/>
<g opacity="0.75">
<path d="M208.289 230.55L207.805 231.47L202.131 259.836L202.361 260.181L217.085 255.032L208.289 230.55Z" fill="url(#paint1_linear)"/>
<path d="M208.286 230.549L190.748 249.763L202.358 260.18L205.112 246.412L208.286 230.549Z" fill="url(#paint2_linear)"/>
<path d="M201.862 262.673L201.66 262.839L199.639 272.943L199.706 273.449L216.594 257.53L201.862 262.673Z" fill="url(#paint3_linear)"/>
<path d="M199.703 273.449L201.859 262.673L190.248 252.26L199.703 273.449Z" fill="url(#paint4_linear)"/>
<path d="M202.356 260.179L217.08 255.03L205.11 246.411L202.356 260.179Z" fill="url(#paint5_linear)"/>
<path d="M190.748 249.763L202.358 260.18L205.112 246.412L190.748 249.763Z" fill="url(#paint6_linear)"/>
</g>
</g>
<g filter="url(#filter1_i)">
<circle cx="217.927" cy="676.927" r="34.161" transform="rotate(-8.68368 217.927 676.927)" fill="url(#paint7_radial)"/>
</g>
<path opacity="0.8" d="M217.091 695.13L214.017 693.11L205.643 687.578L202.569 685.558L203.386 667.784L206.632 666.054L215.557 661.317L218.803 659.587L221.876 661.607L230.171 667.136L233.245 669.156L232.429 686.929L229.183 688.659L220.337 693.4L217.091 695.13ZM209.533 671.825L209.061 682.098L217.435 687.63L226.282 682.889L226.753 672.616L218.379 667.084L209.533 671.825Z" fill="url(#paint8_linear)"/>
<g filter="url(#filter2_i)">
<circle cx="1048.98" cy="724.983" r="29.5" transform="rotate(-24.1336 1048.98 724.983)" fill="url(#paint9_radial)"/>
</g>
<path d="M1045.44 708.657C1038.65 710.232 1034.4 716.994 1035.92 723.805C1036.23 725.168 1036.75 726.471 1037.48 727.666C1038 728.472 1039.06 728.729 1039.89 728.254C1040.68 727.725 1040.93 726.674 1040.45 725.852C1039.86 724.928 1039.45 723.896 1039.25 722.815C1038.28 717.867 1041.51 713.069 1046.45 712.1C1051.4 711.131 1056.19 714.356 1057.16 719.304C1058.07 723.937 1055.3 728.498 1050.77 729.823C1050.77 729.823 1049.06 730.322 1048.23 730.623C1047.92 730.741 1047.62 730.875 1047.33 731.025C1047.29 731.081 1047.22 731.097 1047.16 731.063L1047.16 731.062C1047.12 731.029 1047.11 730.972 1047.13 730.924L1047.07 729.4L1047.03 721.713C1047.01 720.755 1046.23 719.988 1045.27 720.001C1044.31 720.013 1043.55 720.799 1043.56 721.758C1043.56 721.758 1043.77 740.548 1043.81 740.711C1043.78 741.632 1044.51 742.397 1045.43 742.42C1045.44 742.421 1045.45 742.421 1045.46 742.42L1045.55 742.4C1046.47 742.427 1047.24 741.702 1047.26 740.782C1047.26 740.767 1047.26 740.752 1047.26 740.735C1047.26 740.709 1047.25 740.681 1047.25 740.655C1047.25 740.433 1047.19 737.939 1047.19 737.939C1047.15 736.056 1048.29 734.348 1050.04 733.657C1050.4 733.515 1051.94 733.052 1051.94 733.052C1058.56 730.835 1062.13 723.667 1059.91 717.043C1057.89 711.001 1051.69 707.406 1045.44 708.657Z" fill="white" fill-opacity="0.4"/>
<path d="M1045.44 708.657C1038.65 710.232 1034.4 716.994 1035.92 723.805C1036.23 725.168 1036.75 726.471 1037.48 727.666C1038 728.472 1039.06 728.729 1039.89 728.254C1040.68 727.725 1040.93 726.674 1040.45 725.852C1039.86 724.928 1039.45 723.896 1039.25 722.815C1038.28 717.867 1041.51 713.069 1046.45 712.1C1051.4 711.131 1056.19 714.356 1057.16 719.304C1058.07 723.937 1055.3 728.498 1050.77 729.823C1050.77 729.823 1049.06 730.322 1048.23 730.623C1047.92 730.741 1047.62 730.875 1047.33 731.025C1047.29 731.081 1047.22 731.097 1047.16 731.063L1047.16 731.062C1047.12 731.029 1047.11 730.972 1047.13 730.924L1047.07 729.4L1047.03 721.713C1047.01 720.755 1046.23 719.988 1045.27 720.001C1044.31 720.013 1043.55 720.799 1043.56 721.758C1043.56 721.758 1043.77 740.548 1043.81 740.711C1043.78 741.632 1044.51 742.397 1045.43 742.42C1045.44 742.421 1045.45 742.421 1045.46 742.42L1045.55 742.4C1046.47 742.427 1047.24 741.702 1047.26 740.782C1047.26 740.767 1047.26 740.752 1047.26 740.735C1047.26 740.709 1047.25 740.681 1047.25 740.655C1047.25 740.433 1047.19 737.939 1047.19 737.939C1047.15 736.056 1048.29 734.348 1050.04 733.657C1050.4 733.515 1051.94 733.052 1051.94 733.052C1058.56 730.835 1062.13 723.667 1059.91 717.043C1057.89 711.001 1051.69 707.406 1045.44 708.657Z" fill="url(#paint10_linear)" fill-opacity="0.8"/>
<path d="M1052.66 736.943C1051.5 736.964 1050.57 737.926 1050.6 739.09C1050.6 739.101 1050.6 739.112 1050.6 739.123C1050.61 740.283 1051.55 741.216 1052.72 741.205L1052.72 741.205L1052.78 741.192C1053.92 741.208 1054.86 740.293 1054.87 739.153C1054.87 739.144 1054.87 739.135 1054.87 739.126L1054.84 739.013C1054.78 737.853 1053.82 736.944 1052.66 736.943Z" fill="white" fill-opacity="0.4"/>
<path d="M1052.66 736.943C1051.5 736.964 1050.57 737.926 1050.6 739.09C1050.6 739.101 1050.6 739.112 1050.6 739.123C1050.61 740.283 1051.55 741.216 1052.72 741.205L1052.72 741.205L1052.78 741.192C1053.92 741.208 1054.86 740.293 1054.87 739.153C1054.87 739.144 1054.87 739.135 1054.87 739.126L1054.84 739.013C1054.78 737.853 1053.82 736.944 1052.66 736.943Z" fill="url(#paint11_linear)" fill-opacity="0.8"/>
<g filter="url(#filter3_i)">
<circle cx="1237.52" cy="455.517" r="60.4756" transform="rotate(-11.7424 1237.52 455.517)" fill="url(#paint12_radial)"/>
</g>
<path d="M1260.57 448.663C1261.59 441.49 1256.1 437.679 1248.63 435.166L1250.97 425.442L1245.05 424.014L1242.77 433.482C1241.21 433.106 1239.61 432.753 1238.03 432.403L1240.33 422.873L1234.41 421.445L1232.06 431.166C1230.78 430.883 1229.51 430.603 1228.28 430.307L1228.29 430.277L1220.13 428.303L1218.6 434.625C1218.6 434.625 1223 435.597 1222.9 435.66C1225.3 436.239 1225.74 437.819 1225.68 439.075L1223.01 450.152C1223.17 450.193 1223.39 450.252 1223.62 450.345C1223.43 450.298 1223.22 450.246 1223 450.195L1219.25 465.713C1218.96 466.442 1218.23 467.539 1216.55 467.137C1216.61 467.222 1212.25 466.097 1212.25 466.097L1209.37 472.882L1217.07 474.741C1218.51 475.089 1219.91 475.454 1221.29 475.797L1218.92 485.632L1224.83 487.06L1227.18 477.329C1228.8 477.754 1230.37 478.146 1231.9 478.516L1229.56 488.2L1235.48 489.628L1237.85 479.812C1247.94 481.643 1255.51 480.817 1258.63 471.681C1261.14 464.325 1258.41 460.114 1253.09 457.394C1256.95 456.475 1259.84 453.914 1260.57 448.663L1260.57 448.662L1260.57 448.663ZM1247.21 467.692C1245.44 475.042 1233.06 471.169 1229.05 470.204L1232.19 457.175C1236.21 458.144 1249.06 460.027 1247.21 467.692L1247.21 467.692ZM1248.9 448.644C1247.28 455.33 1236.98 452.016 1233.63 451.21L1236.49 439.393C1239.83 440.199 1250.58 441.67 1248.9 448.644L1248.9 448.644Z" fill="url(#paint13_linear)"/>
<path d="M1260.57 448.663C1261.59 441.49 1256.1 437.679 1248.63 435.166L1250.97 425.442L1245.05 424.014L1242.77 433.482C1241.21 433.106 1239.61 432.753 1238.03 432.403L1240.33 422.873L1234.41 421.445L1232.06 431.166C1230.78 430.883 1229.51 430.603 1228.28 430.307L1228.29 430.277L1220.13 428.303L1218.6 434.625C1218.6 434.625 1223 435.597 1222.9 435.66C1225.3 436.239 1225.74 437.819 1225.68 439.075L1223.01 450.152C1223.17 450.193 1223.39 450.252 1223.62 450.345C1223.43 450.298 1223.22 450.246 1223 450.195L1219.25 465.713C1218.96 466.442 1218.23 467.539 1216.55 467.137C1216.61 467.222 1212.25 466.097 1212.25 466.097L1209.37 472.882L1217.07 474.741C1218.51 475.089 1219.91 475.454 1221.29 475.797L1218.92 485.632L1224.83 487.06L1227.18 477.329C1228.8 477.754 1230.37 478.146 1231.9 478.516L1229.56 488.2L1235.48 489.628L1237.85 479.812C1247.94 481.643 1255.51 480.817 1258.63 471.681C1261.14 464.325 1258.41 460.114 1253.09 457.394C1256.95 456.475 1259.84 453.914 1260.57 448.663L1260.57 448.662L1260.57 448.663ZM1247.21 467.692C1245.44 475.042 1233.06 471.169 1229.05 470.204L1232.19 457.175C1236.21 458.144 1249.06 460.027 1247.21 467.692L1247.21 467.692ZM1248.9 448.644C1247.28 455.33 1236.98 452.016 1233.63 451.21L1236.49 439.393C1239.83 440.199 1250.58 441.67 1248.9 448.644L1248.9 448.644Z" fill="white" fill-opacity="0.7"/>
<g filter="url(#filter4_i)">
<circle cx="1019.59" cy="132.59" r="37" transform="rotate(15.6063 1019.59 132.59)" fill="url(#paint14_radial)"/>
</g>
<path d="M998.475 129.608C1000.25 129.901 1001.86 129.07 1002.76 127.661L1001.43 127.054C1000.82 127.939 999.857 128.415 998.704 128.224C997.041 127.949 996.045 126.438 996.316 124.8C996.591 123.137 998.033 122.03 999.684 122.303C1000.85 122.507 1001.61 123.307 1001.9 124.34L1003.35 124.169C1002.93 122.527 1001.67 121.222 999.911 120.931C997.52 120.536 995.269 122.158 994.872 124.561C994.478 126.939 996.072 129.21 998.475 129.608ZM1007.71 131.161C1010.1 131.557 1012.36 129.922 1012.74 127.53C1013.12 125.137 1011.53 122.866 1009.15 122.473C1006.76 122.077 1004.51 123.712 1004.11 126.102C1003.72 128.493 1005.31 130.764 1007.71 131.161ZM1007.94 129.802C1006.28 129.527 1005.28 127.991 1005.56 126.341C1005.83 124.691 1007.29 123.561 1008.93 123.832C1010.58 124.105 1011.57 125.653 1011.3 127.291C1011.02 128.941 1009.59 130.075 1007.94 129.802ZM1013.5 132.019L1014.9 132.25L1016.1 124.981L1017.18 132.627L1019.36 132.988L1022.88 126.053L1021.67 133.37L1023.06 133.601L1024.47 125.106L1022.07 124.709L1018.42 131.873L1017.3 123.92L1014.91 123.524L1013.5 132.019ZM1024.85 133.897L1026.3 134.136L1027.7 125.642L1026.26 125.403L1024.85 133.897ZM1028.13 134.44L1029.54 134.673L1030.79 127.149L1033.05 135.253L1035.45 135.651L1036.86 127.156L1035.45 126.923L1034.23 134.289L1032 126.353L1029.54 125.946L1028.13 134.44ZM1041.21 136.703C1043.56 137.093 1045.59 135.582 1045.99 133.155L1046.07 132.633L1042 131.958L1041.82 133.188L1044.46 133.626C1043.91 134.906 1042.73 135.533 1041.44 135.32C1039.78 135.045 1038.79 133.535 1039.07 131.885C1039.34 130.235 1040.77 129.125 1042.42 129.398C1043.55 129.585 1044.34 130.352 1044.63 131.397L1046.08 131.25C1045.66 129.598 1044.42 128.308 1042.65 128.015C1040.26 127.619 1038.02 129.256 1037.62 131.646C1037.23 134.037 1038.81 136.306 1041.21 136.703ZM1003.43 143.629C1005.07 143.926 1006.67 143.317 1006.93 141.716C1007.1 140.696 1006.69 139.593 1004.62 138.728C1003.26 138.165 1002.34 137.752 1002.46 137.036C1002.57 136.356 1003.37 136.04 1004.3 136.192C1005.4 136.375 1006.56 137.104 1007.28 137.809L1007.53 136.304C1006.92 135.791 1005.9 135.111 1004.51 134.882C1002.81 134.601 1001.27 135.331 1001.03 136.811C1000.83 138.012 1001.58 138.873 1003.44 139.653C1004.86 140.25 1005.62 140.787 1005.5 141.479C1005.4 142.073 1004.74 142.45 1003.71 142.28C1002.55 142.087 1001.36 141.279 1000.48 140.36L1000.22 141.901C1001.12 142.798 1002.25 143.422 1003.43 143.629ZM1011.92 145.034C1014.31 145.429 1016.56 143.795 1016.95 141.402C1017.33 139.01 1015.73 136.739 1013.36 136.345C1010.97 135.95 1008.71 137.584 1008.32 139.975C1007.92 142.365 1009.52 144.636 1011.92 145.034ZM1012.14 143.675C1010.48 143.399 1009.49 141.864 1009.76 140.214C1010.03 138.563 1011.49 137.433 1013.13 137.704C1014.78 137.977 1015.77 139.525 1015.5 141.163C1015.23 142.814 1013.79 143.948 1012.14 143.675ZM1021.79 146.667C1024.18 147.062 1026.43 145.428 1026.82 143.035C1027.2 140.643 1025.61 138.372 1023.23 137.978C1020.84 137.583 1018.58 139.217 1018.19 141.608C1017.79 143.998 1019.39 146.269 1021.79 146.667ZM1022.01 145.308C1020.35 145.033 1019.36 143.497 1019.63 141.847C1019.91 140.196 1021.36 139.066 1023 139.337C1024.65 139.61 1025.64 141.158 1025.37 142.796C1025.1 144.447 1023.66 145.581 1022.01 145.308ZM1027.55 147.521L1028.96 147.753L1030.21 140.23L1032.47 148.334L1034.87 148.731L1036.28 140.237L1034.87 140.004L1033.65 147.37L1031.42 139.434L1028.96 139.026L1027.55 147.521Z" fill="white"/>
<defs>
<filter id="filter0_i" x="164" y="204" width="75" height="83" filterUnits="userSpaceOnUse" color-interpolation-filters="sRGB">
<feFlood flood-opacity="0" result="BackgroundImageFix"/>
<feBlend mode="normal" in="SourceGraphic" in2="BackgroundImageFix" result="shape"/>
<feColorMatrix in="SourceAlpha" type="matrix" values="0 0 0 0 0 0 0 0 0 0 0 0 0 0 0 0 0 0 127 0" result="hardAlpha"/>
<feOffset dx="-5" dy="-13"/>
<feGaussianBlur stdDeviation="9.5"/>
<feComposite in2="hardAlpha" operator="arithmetic" k2="-1" k3="1"/>
<feColorMatrix type="matrix" values="0 0 0 0 0.2375 0 0 0 0 0.163816 0 0 0 0 0.0207812 0 0 0 0.25 0"/>
<feBlend mode="multiply" in2="shape" result="effect1_innerShadow"/>
</filter>
<filter id="filter1_i" x="179.694" y="632.188" width="72.3983" height="78.9051" filterUnits="userSpaceOnUse" color-interpolation-filters="sRGB">
<feFlood flood-opacity="0" result="BackgroundImageFix"/>
<feBlend mode="normal" in="SourceGraphic" in2="BackgroundImageFix" result="shape"/>
<feColorMatrix in="SourceAlpha" type="matrix" values="0 0 0 0 0 0 0 0 0 0 0 0 0 0 0 0 0 0 127 0" result="hardAlpha"/>
<feOffset dx="-4.06678" dy="-10.5736"/>
<feGaussianBlur stdDeviation="7.72689"/>
<feComposite in2="hardAlpha" operator="arithmetic" k2="-1" k3="1"/>
<feColorMatrix type="matrix" values="0 0 0 0 0.2375 0 0 0 0 0.163816 0 0 0 0 0.0207812 0 0 0 0.25 0"/>
<feBlend mode="multiply" in2="shape" result="effect1_innerShadow"/>
</filter>
<filter id="filter2_i" x="1014.48" y="682.476" width="64.0146" height="72.0146" filterUnits="userSpaceOnUse" color-interpolation-filters="sRGB">
<feFlood flood-opacity="0" result="BackgroundImageFix"/>
<feBlend mode="normal" in="SourceGraphic" in2="BackgroundImageFix" result="shape"/>
<feColorMatrix in="SourceAlpha" type="matrix" values="0 0 0 0 0 0 0 0 0 0 0 0 0 0 0 0 0 0 127 0" result="hardAlpha"/>
<feOffset dx="-5" dy="-13"/>
<feGaussianBlur stdDeviation="9.5"/>
<feComposite in2="hardAlpha" operator="arithmetic" k2="-1" k3="1"/>
<feColorMatrix type="matrix" values="0 0 0 0 0.2375 0 0 0 0 0.163816 0 0 0 0 0.0207812 0 0 0 0.25 0"/>
<feBlend mode="multiply" in2="shape" result="effect1_innerShadow"/>
</filter>
<filter id="filter3_i" x="1172.03" y="382.03" width="125.975" height="133.975" filterUnits="userSpaceOnUse" color-interpolation-filters="sRGB">
<feFlood flood-opacity="0" result="BackgroundImageFix"/>
<feBlend mode="normal" in="SourceGraphic" in2="BackgroundImageFix" result="shape"/>
<feColorMatrix in="SourceAlpha" type="matrix" values="0 0 0 0 0 0 0 0 0 0 0 0 0 0 0 0 0 0 127 0" result="hardAlpha"/>
<feOffset dx="-5" dy="-13"/>
<feGaussianBlur stdDeviation="9.5"/>
<feComposite in2="hardAlpha" operator="arithmetic" k2="-1" k3="1"/>
<feColorMatrix type="matrix" values="0 0 0 0 0.2375 0 0 0 0 0.163816 0 0 0 0 0.0207812 0 0 0 0.25 0"/>
<feBlend mode="multiply" in2="shape" result="effect1_innerShadow"/>
</filter>
<filter id="filter4_i" x="977.58" y="82.5804" width="79.0188" height="87.0188" filterUnits="userSpaceOnUse" color-interpolation-filters="sRGB">
<feFlood flood-opacity="0" result="BackgroundImageFix"/>
<feBlend mode="normal" in="SourceGraphic" in2="BackgroundImageFix" result="shape"/>
<feColorMatrix in="SourceAlpha" type="matrix" values="0 0 0 0 0 0 0 0 0 0 0 0 0 0 0 0 0 0 127 0" result="hardAlpha"/>
<feOffset dx="-5" dy="-13"/>
<feGaussianBlur stdDeviation="9.5"/>
<feComposite in2="hardAlpha" operator="arithmetic" k2="-1" k3="1"/>
<feColorMatrix type="matrix" values="0 0 0 0 0.2375 0 0 0 0 0.163816 0 0 0 0 0.0207812 0 0 0 0.25 0"/>
<feBlend mode="multiply" in2="shape" result="effect1_innerShadow"/>
</filter>
<radialGradient id="paint0_radial" cx="0" cy="0" r="1" gradientUnits="userSpaceOnUse" gradientTransform="translate(196.241 242.235) rotate(59.4) scale(45.5617 44.036)">
<stop stop-color="#D9D9EA"/>
<stop offset="1" stop-color="#39393E"/>
</radialGradient>
<linearGradient id="paint1_linear" x1="202.856" y1="234.61" x2="208.157" y2="256.645" gradientUnits="userSpaceOnUse">
<stop stop-color="white"/>
<stop offset="1" stop-color="white" stop-opacity="0"/>
</linearGradient>
<linearGradient id="paint2_linear" x1="202.856" y1="234.61" x2="208.157" y2="256.645" gradientUnits="userSpaceOnUse">
<stop stop-color="white"/>
<stop offset="1" stop-color="white" stop-opacity="0"/>
</linearGradient>
<linearGradient id="paint3_linear" x1="202.856" y1="234.61" x2="208.157" y2="256.645" gradientUnits="userSpaceOnUse">
<stop stop-color="white"/>
<stop offset="1" stop-color="white" stop-opacity="0"/>
</linearGradient>
<linearGradient id="paint4_linear" x1="202.856" y1="234.61" x2="208.157" y2="256.645" gradientUnits="userSpaceOnUse">
<stop stop-color="white"/>
<stop offset="1" stop-color="white" stop-opacity="0"/>
</linearGradient>
<linearGradient id="paint5_linear" x1="202.856" y1="234.61" x2="208.157" y2="256.645" gradientUnits="userSpaceOnUse">
<stop stop-color="white"/>
<stop offset="1" stop-color="white" stop-opacity="0"/>
</linearGradient>
<linearGradient id="paint6_linear" x1="202.856" y1="234.61" x2="208.157" y2="256.645" gradientUnits="userSpaceOnUse">
<stop stop-color="white"/>
<stop offset="1" stop-color="white" stop-opacity="0"/>
</linearGradient>
<radialGradient id="paint7_radial" cx="0" cy="0" r="1" gradientUnits="userSpaceOnUse" gradientTransform="translate(212.139 663.825) rotate(63.3524) scale(48.4175 46.7961)">
<stop offset="0.210684" stop-color="#4B73FF"/>
<stop offset="1" stop-color="#2D1C91"/>
</radialGradient>
<linearGradient id="paint8_linear" x1="209.674" y1="664.671" x2="230.338" y2="691.741" gradientUnits="userSpaceOnUse">
<stop stop-color="white"/>
<stop offset="1" stop-color="white" stop-opacity="0.01"/>
</linearGradient>
<radialGradient id="paint9_radial" cx="0" cy="0" r="1" gradientUnits="userSpaceOnUse" gradientTransform="translate(1040.08 715.505) rotate(45.2768) scale(42.5996 41.1731)">
<stop stop-color="#E657CF"/>
<stop offset="1" stop-color="#4E0F44"/>
</radialGradient>
<linearGradient id="paint10_linear" x1="1046.98" y1="716.161" x2="1053.19" y2="741.159" gradientUnits="userSpaceOnUse">
<stop stop-color="white"/>
<stop offset="1" stop-color="white" stop-opacity="0"/>
</linearGradient>
<linearGradient id="paint11_linear" x1="1046.98" y1="716.161" x2="1053.19" y2="741.159" gradientUnits="userSpaceOnUse">
<stop stop-color="white"/>
<stop offset="1" stop-color="white" stop-opacity="0"/>
</linearGradient>
<radialGradient id="paint12_radial" cx="0" cy="0" r="1" gradientUnits="userSpaceOnUse" gradientTransform="translate(1229.75 431.615) rotate(65.2877) scale(86.0397)">
<stop stop-color="#FFF0D6"/>
<stop offset="0.476325" stop-color="#E4C46D"/>
<stop offset="1" stop-color="#BE640F"/>
</radialGradient>
<linearGradient id="paint13_linear" x1="1234.4" y1="437.437" x2="1251.86" y2="507.265" gradientUnits="userSpaceOnUse">
<stop stop-color="white"/>
<stop offset="1" stop-color="white" stop-opacity="0.01"/>
</linearGradient>
<radialGradient id="paint14_radial" cx="0" cy="0" r="1" gradientUnits="userSpaceOnUse" gradientTransform="translate(1014.84 117.966) rotate(65.2877) scale(52.6406)">
<stop stop-color="#F8D0D0"/>
<stop offset="0.476325" stop-color="#D87EA4"/>
<stop offset="1" stop-color="#940707"/>
</radialGradient>
</defs>
</svg>